<?xml version="1.0" encoding="UTF-8"?>
<svg version="1.1" xmlns="http://www.w3.org/2000/svg" width="144" height="47" >
<path fill="#231F20" d="M18.586,3.925C11.377,15.341,6.354,28.5,3.276,41.593c-0.202,0.86,1.765,0.589,1.947-0.186 c3.049-12.975,8.041-26.012,15.19-37.333C20.955,3.219,18.989,3.288,18.586,3.925L18.586,3.925 M30.097,6.467c-4.906,6.505-9.659,13.309-15.126,19.356c-0.774,0.856,1.107,0.853,1.559,0.354 c5.555-6.143,10.391-13.036,15.374-19.644C32.446,5.813,30.491,5.944,30.097,6.467L30.097,6.467 M13.533,26.585c-0.317-0.116-0.366-0.506-0.437-0.773c-0.044-0.56,0.038-1.092,0.245-1.597 c-0.186,0.355-0.046,0.655,0.417,0.899c0.754,1.174,0.757,2.736,1.014,4.072c0.471,2.45,1.257,4.873,2.37,7.105 c1.932,3.875,5.479,4.776,8.492,1.426c0.478-0.531-1.42-0.326-1.771,0.063c-4.387,4.876-7.076-9.539-7.71-12.057 c-0.439-1.743-1.902-3.127-3.705-2.201c-1.194,0.614-2.137,3.289-0.483,3.892C12.46,27.595,14.217,26.834,13.533,26.585 L13.533,26.585 M33.393,28.105c-4.721-4.646-9.674,2.431-9.905,6.912c-0.085,1.648,0.601,3.006,2.38,2.735 c3.338-0.507,5.667-5.782,7.04-8.201c-0.626,0.018-1.252,0.035-1.878,0.053c-0.096,2.189-0.609,9.321,3.345,7.356 c1.561-0.776,2.724-3.119,3.706-4.47c0.414-0.569,0.838-1.126,1.293-1.663c0.67-0.791-0.446,0.101-0.503,0.671 c-0.25,2.482-1.149,4.978-1.841,7.356c0.647-0.07,1.293-0.139,1.94-0.209c0.607-3.859,1.554-6.727,5.265-8.147 c4.134-1.583,7.581-4.878,10.409-8.181c2.612-3.05,4.965-7.163,4.507-11.318c-0.182-1.647-2.21-1.236-3.058-0.405 c-5.832,5.715-8.277,17.497-7.688,25.249c0.24,3.155,1.534,6.519,4.943,7.028c1.796,0.268,4.062-0.939,4.811-2.569 c0.419-0.912-1.521-0.744-1.815-0.104c-2.094,4.559-5.324-1.45-5.801-3.487c-0.922-3.939-0.05-8.24,0.91-12.081 c0.823-3.297,2.075-6.495,3.553-9.549c0.493-1.019,1.069-1.99,1.69-2.936c1.395-2.125,0.424,1.876,0.273,2.633 c-1.344,6.761-8.712,13.345-15.079,15.051c-3.383,0.906-4.405,6.145-4.858,9.025c-0.138,0.876,1.748,0.453,1.94-0.209 c0.1-0.344,3.834-12.799-0.6-8.785c-1.457,1.318-2.513,3.104-3.668,4.676c-1.524,2.072-1.519,0.211-1.688-1.521 c-0.117-1.197-0.096-2.419-0.043-3.62c0.039-0.891-1.6-0.438-1.878,0.053c-0.74,1.304-5.908,10.104-5.634,4.777 c0.125-2.433,2.885-8.542,6.149-5.331C32.139,29.417,33.97,28.674,33.393,28.105L33.393,28.105 M75.454,25.333c1.672-2.966,8.625-15.546,2.5-17.345c-7.035-2.066-7.917,13.535-8.162,16.997 c-0.302,4.272,0.703,12.099,6.21,7.377c7.534-6.458,9.706-16.332,9.713-25.871c0-0.351-1.891-0.035-1.932,0.518 c-0.292,3.94-0.497,7.887-0.642,11.835c-0.146,3.974-1.199,10.198,0.662,13.909c0.871,1.736,3.824-1.21,4.266-1.832 c4.902-6.909,6.702-16.134,7.884-24.337c-0.641,0.142-1.28,0.284-1.92,0.425c-0.465,8.211-1.276,17.698,1.25,25.625 c3.431,10.765,14.087-6.875,15.67-9.3c0.155-0.238-1.595-0.147-1.908,0.333c-1.606,2.462-8.001,14.685-11.33,9.575 c-1.619-2.486-1.581-6.435-1.787-9.269c-0.42-5.797-0.291-11.681,0.037-17.481c0.019-0.325-1.853-0.04-1.92,0.425 c-1.014,7.037-2.641,13.979-5.626,20.458c-0.434,0.94-3.043,4.718-2.596,4.962c-0.848-0.462-0.727-3.382-0.774-4.133 c-0.457-7.189,0.135-14.538,0.666-21.713c-0.644,0.172-1.288,0.345-1.932,0.518c-0.006,7.415-1.216,14.668-5.393,20.914 c-1.146,1.715-2.603,3.209-4.142,4.571c-2.191,1.938-2.543-4.61-2.578-5.448c-0.185-4.479,0.579-9.159,1.828-13.441 c0.591-2.025,3.142-6.936,4.578-2.9c1.572,4.417-2.402,11.187-4.531,14.963C73.389,25.946,75.176,25.826,75.454,25.333 L75.454,25.333 M110.629,26.649c0.718-0.581,4.363-3.565,4.876-2.764c0.154,0.242,0.542,0.26,0.789,0.247 c0.027-0.001,0.055-0.002,0.082-0.004c0.396-0.02,1.019-0.291,1.073-0.747c0.259-2.134-1.135-5.034-2.562-6.544 c-0.484,0.343-0.97,0.686-1.454,1.029c3.544,1.353,3.933,4.494,4.343,7.794c0.233,1.883,0.902,4.707,3.305,4.493 c4.601-0.41,5.607-8.611,6.683-11.813c-0.647,0.115-1.294,0.23-1.941,0.345c0.299,2.906-0.186,5.877,0.327,8.803 c0.604,3.448,3.228,0.094,3.768-1.402c0.365-1.014-1.565-0.917-1.834-0.172c-0.194,0.539-0.396,1.06-0.639,1.578 c-0.409,0.873,0.83,0.328,0.637-0.522c-0.263-1.156-0.264-2.402-0.301-3.579c-0.055-1.723,0.15-3.51-0.026-5.224 c-0.093-0.91-1.753-0.214-1.94,0.345c-0.563,1.68-0.743,3.448-1.424,5.15c-0.474,1.184-1.084,2.304-1.734,3.398 c-1.831,3.08-2.608-0.049-2.947-1.917c-0.698-3.843-1.059-6.951-5.142-8.51c-0.452-0.172-2.074,0.373-1.454,1.029 c1.223,1.295,2.617,3.991,2.388,5.893c0.357-0.249,0.715-0.498,1.073-0.747c1.096-0.055,0.176-0.362-0.285-0.48 c-0.596-0.153-1.325,0.044-1.872,0.28c-1.839,0.792-3.495,1.988-5.045,3.243C108.35,26.677,109.925,27.219,110.629,26.649 L110.629,26.649 M115.284,23.509c-0.036,0.818-0.121,1.634-0.231,2.445c-0.086,0.638-0.208,1.271-0.369,1.895 c-0.072,0.278-0.167,0.548-0.272,0.816c-0.17,0.435-0.627,0.641-0.009,0.473c-0.2,0.055-0.959,0.283-0.868,0.622 c0.091,0.338,0.862,0.159,1.063,0.104c2.579-0.701,2.523-4.709,2.618-6.872C117.233,22.597,115.312,22.874,115.284,23.509 L115.284,23.509 M128.782,14.862c-0.084,6.987,1.556,15.284,7.073,20.024c0.544,0.468,2.353-0.29,1.789-0.773 c-5.335-4.584-7.007-12.688-6.927-19.476C130.729,13.79,128.79,14.184,128.782,14.862L128.782,14.862 M107.082,29.289c-1.47-0.147-3.769-0.731-3.781-2.546c-0.019-2.41,3.063-5.565,4.816-6.909 c2.364-1.812,1.157,4.915,1.004,6.019c-0.352,2.532,1.117,3.891,3.323,4.805c0.827,0.343,2.251-0.844,1.111-1.316 c-2.243-0.93-2.727-2.138-2.357-4.416c0.291-1.792,0.557-3.53,0.186-5.334c-0.634-3.077-4.157-1.083-5.499,0.138 c-1.928,1.756-4.955,5.195-4.47,8.042c0.343,2.012,3.321,2.772,5.003,2.94C107.376,30.807,108.388,29.42,107.082,29.289 L107.082,29.289z"/>
</svg>